Coordinates
version=1
nRows=7
nColumns=40
inDegrees=yes

Units are S.I. units (second, meters, Newtons, ...)
If the header above contains a line with 'inDegrees', this indicates whether rotational values are in degrees (yes) or radians (no).

endheader
time	pelvis_tilt	pelvis_list	pelvis_rotation	pelvis_tx	pelvis_ty	pelvis_tz	hip_flexion_r	hip_adduction_r	hip_rotation_r	knee_angle_r	knee_angle_r_beta	ankle_angle_r	subtalar_angle_r	mtp_angle_r	hip_flexion_l	hip_adduction_l	hip_rotation_l	knee_angle_l	knee_angle_l_beta	ankle_angle_l	subtalar_angle_l	mtp_angle_l	lumbar_extension	lumbar_bending	lumbar_rotation	arm_flex_r	arm_add_r	arm_rot_r	elbow_flex_r	pro_sup_r	wrist_flex_r	wrist_dev_r	arm_flex_l	arm_add_l	arm_rot_l	elbow_flex_l	pro_sup_l	wrist_flex_l	wrist_dev_l
      3.77500000	      1.01284922	      5.61429381	      6.65188470	     -0.33491231	      1.06743491	     -0.78158121	     12.97920838	     -4.78315137	    -15.02138539	     27.43560398	      0.47884162	      1.97533613	      0.00000000	      0.00000000	     16.48726147	     -7.60405403	     -7.85851900	     92.81252178	      1.61988409	    -17.35994153	      0.00000000	      0.00000000	     -7.82591579	      0.67456004	      1.18770837	     89.91940388	    -18.33077905	     29.47773559	     34.89000067	     78.19172351	      0.00000000	      0.00000000	     89.93005774	     -9.19094758	     32.97786115	     38.99776423	     78.69373850	      0.00000000	      0.00000000
      3.78000000	      0.95105340	      5.52623607	      6.64112921	     -0.33493430	      1.06709666	     -0.78149606	     13.09136789	     -4.68804614	    -15.03510996	     27.48919657	      0.47977699	      2.00580115	      0.00000000	      0.00000000	     16.55103884	     -7.72310186	     -7.87273300	     92.91357641	      1.62164783	    -17.41375049	      0.00000000	      0.00000000	     -7.79087620	      0.74848340	      1.20498324	     89.92027591	    -18.51217544	     29.22324538	     35.10792594	     83.72081752	      0.00000000	      0.00000000	     89.93033274	     -9.32226172	     32.49538439	     39.21461074	     84.64199472	      0.00000000	      0.00000000
      3.78500000	      0.90666847	      5.52629394	      6.66288691	     -0.33498174	      1.06674933	     -0.78156767	     13.20772536	     -4.70447752	    -15.01290058	     27.63213199	      0.48227168	      2.08868108	      0.00000000	      0.00000000	     16.58798915	     -7.69954260	     -7.85374476	     93.00258604	      1.62320134	    -17.42825308	      0.00000000	      0.00000000	     -7.75671905	      0.75183727	      1.16080053	     89.92075665	    -18.44912839	     29.15520722	     35.11199592	     83.82839331	      0.00000000	      0.00000000	     89.93010872	     -9.34997405	     32.45373930	     39.22254168	     84.61482738	      0.00000000	      0.00000000
      3.79000000	      0.83970174	      5.49988151	      6.69480570	     -0.33506833	      1.06636560	     -0.78161657	     13.35269775	     -4.69518075	    -14.99738534	     27.77340629	      0.48473738	      2.14525945	      0.00000000	      0.00000000	     16.66309766	     -7.69606051	     -7.80693802	     93.12168229	      1.62527996	    -17.35386716	      0.00000000	      0.00000000	     -7.70776162	      0.76247245	      1.14765832	     89.92068485	    -18.48751459	     29.15993512	     35.14281296	     83.78098203	      0.00000000	      0.00000000	     89.93057902	     -9.30432231	     32.36671114	     39.23174017	     84.58553414	      0.00000000	      0.00000000
      3.79500000	      0.80719409	      5.47819507	      6.70347607	     -0.33507216	      1.06599601	     -0.78161364	     13.44638186	     -4.67299124	    -14.95417338	     27.88149014	      0.48662380	      2.25599144	      0.00000000	      0.00000000	     16.68667939	     -7.69584977	     -7.77264008	     93.20724682	      1.62677334	    -17.31511280	      0.00000000	      0.00000000	     -7.68493160	      0.77945606	      1.12134353	     89.92097990	    -18.45963028	     29.15473826	     35.17247972	     83.78919007	      0.00000000	      0.00000000	     89.93043237	     -9.33073762	     32.32646312	     39.27619119	     84.61604110	      0.00000000	      0.00000000
      3.80000000	      0.72677135	      5.42413769	      6.72753890	     -0.33518208	      1.06556531	     -0.78162108	     13.59499095	     -4.62848312	    -14.91553327	     27.99263055	      0.48856357	      2.33851486	      0.00000000	      0.00000000	     16.78023273	     -7.71416481	     -7.71321603	     93.29460734	      1.62829807	    -17.36235727	      0.00000000	      0.00000000	     -7.61917299	      0.81842157	      1.15673359	     89.92145305	    -18.58339556	     29.42029916	     35.28592919	     83.17163321	      0.00000000	      0.00000000	     89.93061971	     -9.24455438	     32.31523124	     39.23529268	     84.11739703	      0.00000000	      0.00000000
      3.80500000	      0.69928080	      5.44377928	      6.71662205	     -0.33521859	      1.06518146	     -0.78158683	     13.71264338	     -4.64761547	    -14.82314167	     28.17886143	      0.49181391	      2.47542312	      0.00000000	      0.00000000	     16.77315184	     -7.71085126	     -7.75315323	     93.35625906	      1.62937410	    -17.44782304	      0.00000000	      0.00000000	     -7.62634763	      0.79938278	      1.09206033	     89.92169920	    -18.41479547	     29.10880865	     35.25058688	     83.62793946	      0.00000000	      0.00000000	     89.93083530	     -9.34843984	     32.17479534	     39.33353801	     84.58797327	      0.00000000	      0.00000000
